<?xml version="1.0" standalone="no"?>
<!DOCTYPE svg PUBLIC "-//W3C//DTD SVG 20010904//EN"
 "http://www.w3.org/TR/2001/REC-SVG-20010904/DTD/svg10.dtd">
<svg version="1.0" xmlns="http://www.w3.org/2000/svg"
 width="32.000000pt" height="32.000000pt" viewBox="0 0 32.000000 32.000000"
 preserveAspectRatio="xMidYMid meet">

<g transform="translate(0.000000,32.000000) scale(0.100000,-0.100000)"
fill="#000000" stroke="none">
<path d="M12 308 c-17 -17 -16 -152 1 -166 7 -6 35 -12 62 -14 l50 -3 3 -50
c2 -27 8 -55 14 -62 14 -17 130 -17 146 -1 7 7 12 36 12 64 0 29 4 56 10 59
14 9 13 158 -2 173 -17 17 -279 17 -296 0z m296 -78 c2 -41 -2 -84 -7 -95 -6
-11 -12 -42 -13 -70 l-3 -50 -70 0 -70 0 -3 50 c-2 27 -8 55 -13 62 -6 6 -34
13 -62 15 l-52 3 -3 69 c-2 38 -1 75 2 83 5 11 34 13 148 11 l143 -3 3 -75z"/>
<path d="M90 235 l0 -45 40 0 40 0 0 45 0 45 -40 0 -40 0 0 -45z"/>
<path d="M230 235 c0 -41 2 -45 25 -45 23 0 25 4 25 45 0 41 -2 45 -25 45 -23
0 -25 -4 -25 -45z"/>
<path d="M235 171 c3 -6 -12 -12 -32 -14 -34 -3 -33 -4 11 -5 42 -2 47 0 36
13 -14 17 -25 20 -15 6z"/>
<path d="M173 80 c0 -30 2 -43 4 -28 2 16 2 40 0 55 -2 16 -4 3 -4 -27z"/>
<path d="M213 80 c0 -30 2 -43 4 -28 2 16 2 40 0 55 -2 16 -4 3 -4 -27z"/>
<path d="M253 80 c0 -30 2 -43 4 -28 2 16 2 40 0 55 -2 16 -4 3 -4 -27z"/>
</g>
</svg>
